# xmcd CD database file
#
# Track frame offsets:
#	150
#	33455
#	69118
#	110070
#	132275
#	192893
#	216265
#	238875
#	265560
#	292020
#
# Disc length: 4099 seconds
#
# Revision: 0
# Processed by: cddbd v1.5.1PL0 Copyright (c) Steve Scherf et al.
# Submitted via: CDex 1.51
#
DISCID=9710010a
DTITLE=Miles Davis - Best of Miles Davis
DYEAR=1900
DGENRE=Jazz
TTITLE0=A Night In Tunisia
TTITLE1=Ill remember April
TTITLE2=Surrey with the Fringe on Top
TTITLE3=Doxy
TTITLE4=Walkin
TTITLE5=I could Write a Book
TTITLE6=Airegin
TTITLE7=Oleo
TTITLE8=The Theme
TTITLE9=When Lights are Low
EXTD=
EXTT0=
EXTT1=
EXTT2=
EXTT3=
EXTT4=
EXTT5=
EXTT6=
EXTT7=
EXTT8=
EXTT9=
PLAYORDER=
